<?xml version="1.0" encoding="utf-8"?>
<!-- Generator: Adobe Illustrator 23.0.1, SVG Export Plug-In . SVG Version: 6.00 Build 0)  -->
<svg version="1.1" id="Layer_1" xmlns="http://www.w3.org/2000/svg" xmlns:xlink="http://www.w3.org/1999/xlink" x="0px" y="0px"
	 viewBox="0 0 182.4 55" height="55" width="179" style="enable-background:new 0 0 182.4 55;" xml:space="preserve">
<style type="text/css">
	.st0{fill:#FFFFFF;}
	.st1{fill:#F15A31;}
	.st2{fill:#E94E24;}
</style>
<g>
	<path class="st0" d="M6.1,31.3V0.1H0.2V32c0,2.3,1.9,4.2,4.2,4.2H21v-4.8H6.1z"/>
	<path class="st0" d="M108.9,0.1v25.1c0,0.3-0.1,6.1-7.7,6.1c-7.6,0-7.7-5.9-7.7-6.1V0.1h-5.9v25.1c0,0.1,0.2,11,13.6,11
		s13.6-10.8,13.6-11V0.1H108.9z"/>
	<path class="st0" d="M141.5,0.1v25.6l-14-23.5c-0.7-1.3-2.1-2-3.6-2h-3.7v36.1h5.9V10.2l14,23.9c0.7,1.3,2.1,2.1,3.6,2.1h3.7V0.1
		H141.5z"/>
	<path class="st0" d="M170.9,2.9c-0.6-1.7-2.2-2.8-3.9-2.8c0,0-0.1,0-0.1,0l-0.1,0c-1.8,0-3.4,1.1-3.9,2.8l-11.1,33.2h5.9l9.2-30
		l9.2,30h5.9L170.9,2.9z"/>
	<rect x="25.9" y="31.3" class="st0" width="25" height="4.8"/>
	<path class="st2" d="M32.1,26.5l6.3-20.3l6.3,20.3h5.7L42.4,2.9c-0.6-1.7-2.2-2.8-3.9-2.8c0,0-0.1,0-0.1,0l-0.1,0
		c-1.8,0-3.4,1.1-3.9,2.8l-7.9,23.6H32.1z"/>
	<path class="st0" d="M76.9,25.2c0,0,0.1,6.1-7.6,6.1s-7.7-6.1-7.7-6.1V11h0c0,0-0.1-6.1,7.6-6.1s7.7,6.1,7.7,6.1h5.9
		c0-0.1,0-11-13.6-11S55.7,11,55.7,11l0,0v14.2c0,0.1,0.2,11,13.6,11c13.4,0,13.5-11,13.5-11H76.9z"/>
	<g>
		<g>
			<g>
				<g>
					<path class="st2" d="M27,52.8c0,0.7,0.2,1,1,1h1.8c0.8,0,1-0.3,1-1v-0.9c0-0.7-0.2-1-1-1h-2c-1.5,0-2.2-0.6-2.2-2v-1.1
						c0-1.4,0.8-2,2.3-2H30c1.5,0,2.2,0.6,2.2,2v0.2l-1.4,0.4v-0.3c0-0.7-0.2-1-1-1H28c-0.8,0-1,0.3-1,1v0.8c0,0.7,0.2,1,1,1h2
						c1.5,0,2.2,0.6,2.2,2V53c0,1.4-0.8,2-2.3,2h-2.1c-1.5,0-2.2-0.6-2.2-2v-0.2l1.4-0.4V52.8z"/>
				</g>
			</g>
			<g>
				<g>
					<path class="st2" d="M37.9,55c-1.5,0-2.2-0.6-2.2-2v-5.3c0-1.4,0.7-2,2.2-2h2.5c1.5,0,2.2,0.6,2.2,2V53c0,1.4-0.7,2-2.2,2H37.9
						z M40.2,53.7c0.8,0,1-0.3,1-1v-4.8c0-0.7-0.2-1-1-1H38c-0.8,0-1,0.3-1,1v4.8c0,0.7,0.2,1,1,1H40.2z"/>
				</g>
			</g>
			<g>
				<g>
					<path class="st2" d="M47.8,47v2.9h4.3v1.2h-4.3V55h-1.4v-9.3h6.4V47H47.8z"/>
				</g>
			</g>
			<g>
				<g>
					<path class="st2" d="M60.3,47v8h-1.4v-8h-3.1v-1.3h7.6V47H60.3z"/>
				</g>
			</g>
			<g>
				<g>
					<path class="st2" d="M70.2,48.9l1.2,3.7h0.1l0.9-5v-2h1.3V48l-1.4,7h-1.3l-1.3-3.7h-0.1L68.5,55h-1.3l-1.4-7v-2.3h1.3v2l0.9,5
						h0.1l1.2-3.7H70.2z"/>
				</g>
			</g>
			<g>
				<g>
					<path class="st2" d="M83.8,52.7V55h-1.4v-2.1L82,52.1h-4.1l-0.4,0.8V55h-1.4v-2.3l3.1-7h1.4L83.8,52.7z M78.4,50.9h3.2L80,47.3
						H80L78.4,50.9z"/>
				</g>
			</g>
			<g>
				<g>
					<path class="st2" d="M92.2,55v-1.8l-1.5-2.1h-2.3V55H87v-9.3h4.3c1.5,0,2.2,0.6,2.2,2V49c0,1-0.5,1.6-1.5,1.8l1.5,2V55H92.2z
						 M91.1,49.9c0.8,0,1-0.3,1-1v-1c0-0.7-0.2-1-1-1h-2.8v2.9H91.1z"/>
				</g>
			</g>
			<g>
				<g>
					<path class="st2" d="M97.3,55v-9.3h6.3V47h-4.9v2.7h4.1v1.2h-4.1v2.9h4.9V55H97.3z"/>
				</g>
			</g>
			<g>
				<g>
					<path class="st2" d="M106.7,55v-1.3h8.1V55H106.7z"/>
				</g>
			</g>
		</g>
	</g>
</g>
</svg>
